<svg width="264" height="352" viewBox="0 0 264 352" fill="none" xmlns="http://www.w3.org/2000/svg">
<rect width="264" height="352" fill="#E5E5E5"/>
<g clip-path="url(#clip0)">
<rect width="1440" height="3624" transform="translate(-1041 -2733)" fill="white"/>
<path opacity="0.2" d="M264 20C264 8.9543 255.046 0 244 0H-886C-897.046 0 -906 8.95431 -906 20V387C-906 398.046 -897.046 407 -886 407H244C255.046 407 264 398.046 264 387V20Z" fill="#DFD7F9"/>
<g opacity="0.1">
<mask id="mask0" mask-type="alpha" maskUnits="userSpaceOnUse" x="0" y="0" width="264" height="352">
<path d="M0.5 0.5H240C252.979 0.5 263.5 11.0213 263.5 24V351.022H50C22.6619 351.022 0.5 328.86 0.5 301.522V0.5Z" fill="url(#paint0_linear)" stroke="#6246E5"/>
</mask>
<g mask="url(#mask0)">
<circle cx="239.015" cy="178.32" r="91.8033" stroke="#6246E5"/>
<circle cx="231.728" cy="168.604" r="102.734" stroke="#6246E5"/>
<circle cx="225.655" cy="160.71" r="112.45" stroke="#6246E5"/>
<circle cx="219.583" cy="149.171" r="120.952" stroke="#6246E5"/>
<circle cx="213.814" cy="137.937" r="129.15" stroke="#6246E5"/>
<circle cx="204.098" cy="125.185" r="141.902" stroke="#6246E5"/>
</g>
</g>
<path d="M-731.2 111.334C-731.2 103.216 -743.014 105.79 -743.014 101.17C-743.014 99.289 -741.661 98.398 -739.846 98.464C-737.866 98.497 -736.645 99.685 -736.546 101.203H-731.464C-731.761 97.045 -734.995 94.636 -739.714 94.636C-744.466 94.636 -747.832 97.144 -747.832 101.302C-747.865 109.651 -735.985 106.648 -735.985 111.631C-735.985 113.281 -737.272 114.436 -739.45 114.436C-741.595 114.436 -742.816 113.215 -742.948 111.367H-747.898C-747.832 115.723 -744.136 118.231 -739.351 118.231C-734.104 118.231 -731.2 114.964 -731.2 111.334ZM-709.935 99.718H-714.588V109.783C-714.588 112.72 -716.172 114.304 -718.68 114.304C-721.122 114.304 -722.739 112.72 -722.739 109.783V99.718H-727.359V110.443C-727.359 115.459 -724.29 118.231 -720.033 118.231C-717.756 118.231 -715.743 117.241 -714.588 115.69V118H-709.935V99.718ZM-700.757 102.391V93.58H-705.377V118H-700.757V115.393C-699.635 116.977 -697.589 118.297 -694.718 118.297C-690.032 118.297 -686.369 114.502 -686.369 108.793C-686.369 103.084 -690.032 99.421 -694.718 99.421C-697.49 99.421 -699.635 100.708 -700.757 102.391ZM-691.088 108.793C-691.088 112.258 -693.431 114.238 -695.939 114.238C-698.414 114.238 -700.757 112.324 -700.757 108.859C-700.757 105.394 -698.414 103.48 -695.939 103.48C-693.431 103.48 -691.088 105.328 -691.088 108.793ZM-668.822 112.786C-668.954 106.087 -679.085 108.166 -679.085 104.833C-679.085 103.777 -678.194 103.084 -676.478 103.084C-674.663 103.084 -673.541 104.041 -673.409 105.46H-668.987C-669.251 101.83 -671.924 99.421 -676.346 99.421C-680.867 99.421 -683.573 101.863 -683.573 104.899C-683.573 111.598 -673.244 109.519 -673.244 112.786C-673.244 113.842 -674.234 114.667 -676.049 114.667C-677.897 114.667 -679.184 113.611 -679.349 112.225H-684.002C-683.804 115.624 -680.603 118.297 -676.016 118.297C-671.561 118.297 -668.822 115.921 -668.822 112.786ZM-666.217 108.859C-666.217 114.601 -662.455 118.297 -657.175 118.297C-652.621 118.297 -649.552 115.723 -648.562 111.829H-653.545C-654.106 113.479 -655.294 114.337 -657.208 114.337C-659.782 114.337 -661.498 112.423 -661.498 108.859C-661.498 105.295 -659.782 103.348 -657.208 103.348C-655.294 103.348 -654.073 104.338 -653.545 105.889H-648.562C-649.552 101.797 -652.621 99.421 -657.175 99.421C-662.455 99.421 -666.217 103.117 -666.217 108.859ZM-640.558 108.892C-640.558 105.361 -638.908 104.305 -636.169 104.305H-634.948V99.454C-637.489 99.454 -639.403 100.675 -640.558 102.556V99.718H-645.178V118H-640.558V108.892ZM-631.836 118H-627.216V99.718H-631.836V118ZM-629.493 97.54C-627.876 97.54 -626.655 96.352 -626.655 94.834C-626.655 93.316 -627.876 92.128 -629.493 92.128C-631.143 92.128 -632.331 93.316 -632.331 94.834C-632.331 96.352 -631.143 97.54 -629.493 97.54ZM-618.031 102.391V93.58H-622.651V118H-618.031V115.393C-616.909 116.977 -614.863 118.297 -611.992 118.297C-607.306 118.297 -603.643 114.502 -603.643 108.793C-603.643 103.084 -607.306 99.421 -611.992 99.421C-614.764 99.421 -616.909 100.708 -618.031 102.391ZM-608.362 108.793C-608.362 112.258 -610.705 114.238 -613.213 114.238C-615.688 114.238 -618.031 112.324 -618.031 108.859C-618.031 105.394 -615.688 103.48 -613.213 103.48C-610.705 103.48 -608.362 105.328 -608.362 108.793ZM-592.432 103.216C-590.056 103.216 -588.142 104.734 -588.076 107.143H-596.755C-596.392 104.635 -594.643 103.216 -592.432 103.216ZM-583.753 112.258H-588.736C-589.33 113.479 -590.419 114.469 -592.399 114.469C-594.709 114.469 -596.557 112.951 -596.788 110.245H-583.423C-583.324 109.651 -583.291 109.057 -583.291 108.463C-583.291 103.018 -587.02 99.421 -592.3 99.421C-597.712 99.421 -601.474 103.084 -601.474 108.859C-601.474 114.601 -597.613 118.297 -592.3 118.297C-587.779 118.297 -584.743 115.624 -583.753 112.258ZM-571.33 112.324C-571.33 116.515 -568.987 118 -565.489 118H-562.585V114.106H-564.73C-566.182 114.106 -566.677 113.578 -566.677 112.357V103.513H-562.585V99.718H-566.677V95.197H-571.33V99.718H-573.508V103.513H-571.33V112.324ZM-541.607 108.859C-541.607 103.084 -545.732 99.421 -551.012 99.421C-556.292 99.421 -560.417 103.084 -560.417 108.859C-560.417 114.601 -556.424 118.297 -551.144 118.297C-545.831 118.297 -541.607 114.601 -541.607 108.859ZM-555.731 108.859C-555.731 105.196 -553.52 103.447 -551.078 103.447C-548.636 103.447 -546.359 105.196 -546.359 108.859C-546.359 112.489 -548.702 114.271 -551.144 114.271C-553.619 114.271 -555.731 112.489 -555.731 108.859ZM-531.542 108.793C-531.542 114.502 -527.846 118.297 -523.193 118.297C-520.322 118.297 -518.243 116.878 -517.154 115.294V118.132C-517.154 121.531 -519.134 122.983 -521.675 122.983C-523.985 122.983 -525.701 121.894 -526.163 120.244H-530.75C-530.288 124.435 -526.691 127.009 -521.543 127.009C-515.537 127.009 -512.501 123.082 -512.501 118.132V99.718H-517.154V102.325C-518.243 100.741 -520.322 99.421 -523.193 99.421C-527.846 99.421 -531.542 103.084 -531.542 108.793ZM-517.154 108.859C-517.154 112.324 -519.464 114.238 -522.005 114.238C-524.48 114.238 -526.823 112.258 -526.823 108.793C-526.823 105.328 -524.48 103.48 -522.005 103.48C-519.464 103.48 -517.154 105.394 -517.154 108.859ZM-500.135 103.216C-497.759 103.216 -495.845 104.734 -495.779 107.143H-504.458C-504.095 104.635 -502.346 103.216 -500.135 103.216ZM-491.456 112.258H-496.439C-497.033 113.479 -498.122 114.469 -500.102 114.469C-502.412 114.469 -504.26 112.951 -504.491 110.245H-491.126C-491.027 109.651 -490.994 109.057 -490.994 108.463C-490.994 103.018 -494.723 99.421 -500.003 99.421C-505.415 99.421 -509.177 103.084 -509.177 108.859C-509.177 114.601 -505.316 118.297 -500.003 118.297C-495.482 118.297 -492.446 115.624 -491.456 112.258ZM-486.896 112.324C-486.896 116.515 -484.553 118 -481.055 118H-478.151V114.106H-480.296C-481.748 114.106 -482.243 113.578 -482.243 112.357V103.513H-478.151V99.718H-482.243V95.197H-486.896V99.718H-489.074V103.513H-486.896V112.324ZM-466.965 118H-462.345V99.718H-466.965V118ZM-464.622 97.54C-463.005 97.54 -461.784 96.352 -461.784 94.834C-461.784 93.316 -463.005 92.128 -464.622 92.128C-466.272 92.128 -467.46 93.316 -467.46 94.834C-467.46 96.352 -466.272 97.54 -464.622 97.54ZM-444.976 118H-440.356V107.275C-440.356 102.226 -443.392 99.454 -447.649 99.454C-449.992 99.454 -451.972 100.444 -453.16 101.995V99.718H-457.78V118H-453.16V107.902C-453.16 104.965 -451.543 103.381 -449.035 103.381C-446.593 103.381 -444.976 104.965 -444.976 107.902V118ZM-435.468 118H-430.782V103.513H-427.581V99.718H-430.782V98.959C-430.782 96.913 -430.023 96.187 -427.779 96.253V92.359C-432.927 92.227 -435.468 94.306 -435.468 98.794V99.718H-437.547V103.513H-435.468V118ZM-406.932 108.859C-406.932 103.084 -411.057 99.421 -416.337 99.421C-421.617 99.421 -425.742 103.084 -425.742 108.859C-425.742 114.601 -421.749 118.297 -416.469 118.297C-411.156 118.297 -406.932 114.601 -406.932 108.859ZM-421.056 108.859C-421.056 105.196 -418.845 103.447 -416.403 103.447C-413.961 103.447 -411.684 105.196 -411.684 108.859C-411.684 112.489 -414.027 114.271 -416.469 114.271C-418.944 114.271 -421.056 112.489 -421.056 108.859ZM-398.923 108.892C-398.923 105.361 -397.273 104.305 -394.534 104.305H-393.313V99.454C-395.854 99.454 -397.768 100.675 -398.923 102.556V99.718H-403.543V118H-398.923V108.892ZM-364.626 118H-360.006V107.275C-360.006 102.226 -363.108 99.454 -367.497 99.454C-370.17 99.454 -372.579 100.873 -373.767 102.952C-375.021 100.675 -377.364 99.454 -380.202 99.454C-382.479 99.454 -384.426 100.411 -385.581 101.929V99.718H-390.201V118H-385.581V107.902C-385.581 104.998 -383.964 103.48 -381.456 103.48C-379.014 103.48 -377.397 104.998 -377.397 107.902V118H-372.777V107.902C-372.777 104.998 -371.16 103.48 -368.685 103.48C-366.243 103.48 -364.626 104.998 -364.626 107.902V118ZM-356.81 108.793C-356.81 114.502 -353.114 118.297 -348.494 118.297C-345.59 118.297 -343.511 116.911 -342.422 115.327V118H-337.769V99.718H-342.422V102.325C-343.511 100.807 -345.524 99.421 -348.461 99.421C-353.114 99.421 -356.81 103.084 -356.81 108.793ZM-342.422 108.859C-342.422 112.324 -344.732 114.238 -347.273 114.238C-349.748 114.238 -352.091 112.258 -352.091 108.793C-352.091 105.328 -349.748 103.48 -347.273 103.48C-344.732 103.48 -342.422 105.394 -342.422 108.859ZM-332.531 112.324C-332.531 116.515 -330.188 118 -326.69 118H-323.786V114.106H-325.931C-327.383 114.106 -327.878 113.578 -327.878 112.357V103.513H-323.786V99.718H-327.878V95.197H-332.531V99.718H-334.709V103.513H-332.531V112.324ZM-320.463 118H-315.843V99.718H-320.463V118ZM-318.12 97.54C-316.503 97.54 -315.282 96.352 -315.282 94.834C-315.282 93.316 -316.503 92.128 -318.12 92.128C-319.77 92.128 -320.958 93.316 -320.958 94.834C-320.958 96.352 -319.77 97.54 -318.12 97.54ZM-293.623 108.859C-293.623 103.084 -297.748 99.421 -303.028 99.421C-308.308 99.421 -312.433 103.084 -312.433 108.859C-312.433 114.601 -308.44 118.297 -303.16 118.297C-297.847 118.297 -293.623 114.601 -293.623 108.859ZM-307.747 108.859C-307.747 105.196 -305.536 103.447 -303.094 103.447C-300.652 103.447 -298.375 105.196 -298.375 108.859C-298.375 112.489 -300.718 114.271 -303.16 114.271C-305.635 114.271 -307.747 112.489 -307.747 108.859ZM-277.43 118H-272.81V107.275C-272.81 102.226 -275.846 99.454 -280.103 99.454C-282.446 99.454 -284.426 100.444 -285.614 101.995V99.718H-290.234V118H-285.614V107.902C-285.614 104.965 -283.997 103.381 -281.489 103.381C-279.047 103.381 -277.43 104.965 -277.43 107.902V118ZM-270.298 122.752H-267.295L-263.203 112.918H-268.087L-270.298 122.752ZM-252.142 118H-247.522V93.58H-252.142V118ZM-244.146 108.793C-244.146 114.502 -240.45 118.297 -235.83 118.297C-232.926 118.297 -230.847 116.911 -229.758 115.327V118H-225.105V99.718H-229.758V102.325C-230.847 100.807 -232.86 99.421 -235.797 99.421C-240.45 99.421 -244.146 103.084 -244.146 108.793ZM-229.758 108.859C-229.758 112.324 -232.068 114.238 -234.609 114.238C-237.084 114.238 -239.427 112.258 -239.427 108.793C-239.427 105.328 -237.084 103.48 -234.609 103.48C-232.068 103.48 -229.758 105.394 -229.758 108.859ZM-219.867 112.324C-219.867 116.515 -217.524 118 -214.026 118H-211.122V114.106H-213.267C-214.719 114.106 -215.214 113.578 -215.214 112.357V103.513H-211.122V99.718H-215.214V95.197H-219.867V99.718H-222.045V103.513H-219.867V112.324ZM-199.945 103.216C-197.569 103.216 -195.655 104.734 -195.589 107.143H-204.268C-203.905 104.635 -202.156 103.216 -199.945 103.216ZM-191.266 112.258H-196.249C-196.843 113.479 -197.932 114.469 -199.912 114.469C-202.222 114.469 -204.07 112.951 -204.301 110.245H-190.936C-190.837 109.651 -190.804 109.057 -190.804 108.463C-190.804 103.018 -194.533 99.421 -199.813 99.421C-205.225 99.421 -208.987 103.084 -208.987 108.859C-208.987 114.601 -205.126 118.297 -199.813 118.297C-195.292 118.297 -192.256 115.624 -191.266 112.258ZM-173.241 112.786C-173.373 106.087 -183.504 108.166 -183.504 104.833C-183.504 103.777 -182.613 103.084 -180.897 103.084C-179.082 103.084 -177.96 104.041 -177.828 105.46H-173.406C-173.67 101.83 -176.343 99.421 -180.765 99.421C-185.286 99.421 -187.992 101.863 -187.992 104.899C-187.992 111.598 -177.663 109.519 -177.663 112.786C-177.663 113.842 -178.653 114.667 -180.468 114.667C-182.316 114.667 -183.603 113.611 -183.768 112.225H-188.421C-188.223 115.624 -185.022 118.297 -180.435 118.297C-175.98 118.297 -173.241 115.921 -173.241 112.786ZM-168.723 112.324C-168.723 116.515 -166.38 118 -162.882 118H-159.978V114.106H-162.123C-163.575 114.106 -164.07 113.578 -164.07 112.357V103.513H-159.978V99.718H-164.07V95.197H-168.723V99.718H-170.901V103.513H-168.723V112.324ZM-135.988 118H-131.368V107.275C-131.368 102.226 -134.404 99.454 -138.661 99.454C-141.004 99.454 -142.984 100.444 -144.172 101.995V99.718H-148.792V118H-144.172V107.902C-144.172 104.965 -142.555 103.381 -140.047 103.381C-137.605 103.381 -135.988 104.965 -135.988 107.902V118ZM-119.12 103.216C-116.744 103.216 -114.83 104.734 -114.764 107.143H-123.443C-123.08 104.635 -121.331 103.216 -119.12 103.216ZM-110.441 112.258H-115.424C-116.018 113.479 -117.107 114.469 -119.087 114.469C-121.397 114.469 -123.245 112.951 -123.476 110.245H-110.111C-110.012 109.651 -109.979 109.057 -109.979 108.463C-109.979 103.018 -113.708 99.421 -118.988 99.421C-124.4 99.421 -128.162 103.084 -128.162 108.859C-128.162 114.601 -124.301 118.297 -118.988 118.297C-114.467 118.297 -111.431 115.624 -110.441 112.258ZM-103.274 118H-98.2583L-94.9253 105.229L-91.5923 118H-86.6093L-81.2633 99.718H-85.6853L-88.9193 113.611L-92.3513 99.718H-97.2353L-100.733 113.644L-103.967 99.718H-108.653L-103.274 118ZM-64.5735 112.786C-64.7055 106.087 -74.8365 108.166 -74.8365 104.833C-74.8365 103.777 -73.9455 103.084 -72.2295 103.084C-70.4145 103.084 -69.2925 104.041 -69.1605 105.46H-64.7385C-65.0025 101.83 -67.6755 99.421 -72.0975 99.421C-76.6185 99.421 -79.3245 101.863 -79.3245 104.899C-79.3245 111.598 -68.9955 109.519 -68.9955 112.786C-68.9955 113.842 -69.9855 114.667 -71.8005 114.667C-73.6485 114.667 -74.9355 113.611 -75.1005 112.225H-79.7535C-79.5555 115.624 -76.3545 118.297 -71.7675 118.297C-67.3125 118.297 -64.5735 115.921 -64.5735 112.786ZM-54.1058 108.793C-54.1058 114.502 -50.4098 118.297 -45.7898 118.297C-42.8858 118.297 -40.8068 116.911 -39.7178 115.327V118H-35.0648V99.718H-39.7178V102.325C-40.8068 100.807 -42.8198 99.421 -45.7568 99.421C-50.4098 99.421 -54.1058 103.084 -54.1058 108.793ZM-39.7178 108.859C-39.7178 112.324 -42.0278 114.238 -44.5688 114.238C-47.0438 114.238 -49.3868 112.258 -49.3868 108.793C-49.3868 105.328 -47.0438 103.48 -44.5688 103.48C-42.0278 103.48 -39.7178 105.394 -39.7178 108.859ZM-17.7486 118H-13.1286V107.275C-13.1286 102.226 -16.1646 99.454 -20.4216 99.454C-22.7646 99.454 -24.7446 100.444 -25.9326 101.995V99.718H-30.5526V118H-25.9326V107.902C-25.9326 104.965 -24.3156 103.381 -21.8076 103.381C-19.3656 103.381 -17.7486 104.965 -17.7486 107.902V118ZM-9.92321 108.793C-9.92321 114.502 -6.22721 118.297 -1.57421 118.297C1.29679 118.297 3.34279 116.977 4.43179 115.294V118H9.11779V93.58H4.43179V102.259C3.17779 100.543 0.867793 99.421 -1.54121 99.421C-6.22721 99.421 -9.92321 103.084 -9.92321 108.793ZM4.46479 108.859C4.46479 112.324 2.15479 114.238 -0.386206 114.238C-2.86121 114.238 -5.20421 112.258 -5.20421 108.793C-5.20421 105.328 -2.86121 103.48 -0.386206 103.48C2.15479 103.48 4.46479 105.394 4.46479 108.859ZM39.1483 108.859C39.1483 103.084 35.0233 99.421 29.7433 99.421C24.4633 99.421 20.3383 103.084 20.3383 108.859C20.3383 114.601 24.3313 118.297 29.6113 118.297C34.9243 118.297 39.1483 114.601 39.1483 108.859ZM25.0243 108.859C25.0243 105.196 27.2353 103.447 29.6773 103.447C32.1193 103.447 34.3963 105.196 34.3963 108.859C34.3963 112.489 32.0533 114.271 29.6113 114.271C27.1363 114.271 25.0243 112.489 25.0243 108.859ZM43.2633 112.324C43.2633 116.515 45.6063 118 49.1043 118H52.0083V114.106H49.8633C48.4113 114.106 47.9163 113.578 47.9163 112.357V103.513H52.0083V99.718H47.9163V95.197H43.2633V99.718H41.0853V103.513H43.2633V112.324ZM55.3312 118H59.9512V107.902C59.9512 104.965 61.5682 103.381 64.0762 103.381C66.5182 103.381 68.1352 104.965 68.1352 107.902V118H72.7552V107.275C72.7552 102.226 69.7522 99.454 65.6272 99.454C63.1852 99.454 61.1392 100.444 59.9512 101.995V93.58H55.3312V118ZM85.0026 103.216C87.3786 103.216 89.2926 104.734 89.3586 107.143H80.6796C81.0426 104.635 82.7916 103.216 85.0026 103.216ZM93.6816 112.258H88.6986C88.1046 113.479 87.0156 114.469 85.0356 114.469C82.7256 114.469 80.8776 112.951 80.6466 110.245H94.0116C94.1106 109.651 94.1436 109.057 94.1436 108.463C94.1436 103.018 90.4146 99.421 85.1346 99.421C79.7226 99.421 75.9606 103.084 75.9606 108.859C75.9606 114.601 79.8216 118.297 85.1346 118.297C89.6556 118.297 92.6916 115.624 93.6816 112.258ZM102.136 108.892C102.136 105.361 103.786 104.305 106.525 104.305H107.746V99.454C105.205 99.454 103.291 100.675 102.136 102.556V99.718H97.5158V118H102.136V108.892ZM-592.713 172H-588.093V153.718H-592.713V172ZM-590.37 151.54C-588.753 151.54 -587.532 150.352 -587.532 148.834C-587.532 147.316 -588.753 146.128 -590.37 146.128C-592.02 146.128 -593.208 147.316 -593.208 148.834C-593.208 150.352 -592.02 151.54 -590.37 151.54ZM-570.724 172H-566.104V161.275C-566.104 156.226 -569.14 153.454 -573.397 153.454C-575.74 153.454 -577.72 154.444 -578.908 155.995V153.718H-583.528V172H-578.908V161.902C-578.908 158.965 -577.291 157.381 -574.783 157.381C-572.341 157.381 -570.724 158.965 -570.724 161.902V172ZM-560.985 166.324C-560.985 170.515 -558.642 172 -555.144 172H-552.24V168.106H-554.385C-555.837 168.106 -556.332 167.578 -556.332 166.357V157.513H-552.24V153.718H-556.332V149.197H-560.985V153.718H-563.163V157.513H-560.985V166.324ZM-541.063 157.216C-538.687 157.216 -536.773 158.734 -536.707 161.143H-545.386C-545.023 158.635 -543.274 157.216 -541.063 157.216ZM-532.384 166.258H-537.367C-537.961 167.479 -539.05 168.469 -541.03 168.469C-543.34 168.469 -545.188 166.951 -545.419 164.245H-532.054C-531.955 163.651 -531.922 163.057 -531.922 162.463C-531.922 157.018 -535.651 153.421 -540.931 153.421C-546.343 153.421 -550.105 157.084 -550.105 162.859C-550.105 168.601 -546.244 172.297 -540.931 172.297C-536.41 172.297 -533.374 169.624 -532.384 166.258ZM-523.93 162.892C-523.93 159.361 -522.28 158.305 -519.541 158.305H-518.32V153.454C-520.861 153.454 -522.775 154.675 -523.93 156.556V153.718H-528.55V172H-523.93V162.892ZM-507.354 157.216C-504.978 157.216 -503.064 158.734 -502.998 161.143H-511.677C-511.314 158.635 -509.565 157.216 -507.354 157.216ZM-498.675 166.258H-503.658C-504.252 167.479 -505.341 168.469 -507.321 168.469C-509.631 168.469 -511.479 166.951 -511.71 164.245H-498.345C-498.246 163.651 -498.213 163.057 -498.213 162.463C-498.213 157.018 -501.942 153.421 -507.222 153.421C-512.634 153.421 -516.396 157.084 -516.396 162.859C-516.396 168.601 -512.535 172.297 -507.222 172.297C-502.701 172.297 -499.665 169.624 -498.675 166.258ZM-480.651 166.786C-480.783 160.087 -490.914 162.166 -490.914 158.833C-490.914 157.777 -490.023 157.084 -488.307 157.084C-486.492 157.084 -485.37 158.041 -485.238 159.46H-480.816C-481.08 155.83 -483.753 153.421 -488.175 153.421C-492.696 153.421 -495.402 155.863 -495.402 158.899C-495.402 165.598 -485.073 163.519 -485.073 166.786C-485.073 167.842 -486.063 168.667 -487.878 168.667C-489.726 168.667 -491.013 167.611 -491.178 166.225H-495.831C-495.633 169.624 -492.432 172.297 -487.845 172.297C-483.39 172.297 -480.651 169.921 -480.651 166.786ZM-476.132 166.324C-476.132 170.515 -473.789 172 -470.291 172H-467.387V168.106H-469.532C-470.984 168.106 -471.479 167.578 -471.479 166.357V157.513H-467.387V153.718H-471.479V149.197H-476.132V153.718H-478.31V157.513H-476.132V166.324ZM-464.064 172H-459.444V153.718H-464.064V172ZM-461.721 151.54C-460.104 151.54 -458.883 150.352 -458.883 148.834C-458.883 147.316 -460.104 146.128 -461.721 146.128C-463.371 146.128 -464.559 147.316 -464.559 148.834C-464.559 150.352 -463.371 151.54 -461.721 151.54ZM-442.076 172H-437.456V161.275C-437.456 156.226 -440.492 153.454 -444.749 153.454C-447.092 153.454 -449.072 154.444 -450.26 155.995V153.718H-454.88V172H-450.26V161.902C-450.26 158.965 -448.643 157.381 -446.135 157.381C-443.693 157.381 -442.076 158.965 -442.076 161.902V172ZM-434.25 162.793C-434.25 168.502 -430.554 172.297 -425.901 172.297C-423.03 172.297 -420.951 170.878 -419.862 169.294V172.132C-419.862 175.531 -421.842 176.983 -424.383 176.983C-426.693 176.983 -428.409 175.894 -428.871 174.244H-433.458C-432.996 178.435 -429.399 181.009 -424.251 181.009C-418.245 181.009 -415.209 177.082 -415.209 172.132V153.718H-419.862V156.325C-420.951 154.741 -423.03 153.421 -425.901 153.421C-430.554 153.421 -434.25 157.084 -434.25 162.793ZM-419.862 162.859C-419.862 166.324 -422.172 168.238 -424.713 168.238C-427.188 168.238 -429.531 166.258 -429.531 162.793C-429.531 159.328 -427.188 157.48 -424.713 157.48C-422.172 157.48 -419.862 159.394 -419.862 162.859ZM-385.179 162.859C-385.179 157.084 -389.304 153.421 -394.584 153.421C-399.864 153.421 -403.989 157.084 -403.989 162.859C-403.989 168.601 -399.996 172.297 -394.716 172.297C-389.403 172.297 -385.179 168.601 -385.179 162.859ZM-399.303 162.859C-399.303 159.196 -397.092 157.447 -394.65 157.447C-392.208 157.447 -389.931 159.196 -389.931 162.859C-389.931 166.489 -392.274 168.271 -394.716 168.271C-397.191 168.271 -399.303 166.489 -399.303 162.859ZM-381.295 172H-376.609V157.513H-373.408V153.718H-376.609V152.959C-376.609 150.913 -375.85 150.187 -373.606 150.253V146.359C-378.754 146.227 -381.295 148.306 -381.295 152.794V153.718H-383.374V157.513H-381.295V172ZM-369.919 172H-365.233V157.513H-362.032V153.718H-365.233V152.959C-365.233 150.913 -364.474 150.187 -362.23 150.253V146.359C-367.378 146.227 -369.919 148.306 -369.919 152.794V153.718H-371.998V157.513H-369.919V172ZM-351.184 157.216C-348.808 157.216 -346.894 158.734 -346.828 161.143H-355.507C-355.144 158.635 -353.395 157.216 -351.184 157.216ZM-342.505 166.258H-347.488C-348.082 167.479 -349.171 168.469 -351.151 168.469C-353.461 168.469 -355.309 166.951 -355.54 164.245H-342.175C-342.076 163.651 -342.043 163.057 -342.043 162.463C-342.043 157.018 -345.772 153.421 -351.052 153.421C-356.464 153.421 -360.226 157.084 -360.226 162.859C-360.226 168.601 -356.365 172.297 -351.052 172.297C-346.531 172.297 -343.495 169.624 -342.505 166.258ZM-334.051 162.892C-334.051 159.361 -332.401 158.305 -329.662 158.305H-328.441V153.454C-330.982 153.454 -332.896 154.675 -334.051 156.556V153.718H-338.671V172H-334.051V162.892ZM-311.139 166.786C-311.271 160.087 -321.402 162.166 -321.402 158.833C-321.402 157.777 -320.511 157.084 -318.795 157.084C-316.98 157.084 -315.858 158.041 -315.726 159.46H-311.304C-311.568 155.83 -314.241 153.421 -318.663 153.421C-323.184 153.421 -325.89 155.863 -325.89 158.899C-325.89 165.598 -315.561 163.519 -315.561 166.786C-315.561 167.842 -316.551 168.667 -318.366 168.667C-320.214 168.667 -321.501 167.611 -321.666 166.225H-326.319C-326.121 169.624 -322.92 172.297 -318.333 172.297C-313.878 172.297 -311.139 169.921 -311.139 166.786ZM-300.671 162.793C-300.671 168.502 -296.975 172.297 -292.355 172.297C-289.451 172.297 -287.372 170.911 -286.283 169.327V172H-281.63V153.718H-286.283V156.325C-287.372 154.807 -289.385 153.421 -292.322 153.421C-296.975 153.421 -300.671 157.084 -300.671 162.793ZM-286.283 162.859C-286.283 166.324 -288.593 168.238 -291.134 168.238C-293.609 168.238 -295.952 166.258 -295.952 162.793C-295.952 159.328 -293.609 157.48 -291.134 157.48C-288.593 157.48 -286.283 159.394 -286.283 162.859ZM-272.498 156.391V147.58H-277.118V172H-272.498V169.393C-271.376 170.977 -269.33 172.297 -266.459 172.297C-261.773 172.297 -258.11 168.502 -258.11 162.793C-258.11 157.084 -261.773 153.421 -266.459 153.421C-269.231 153.421 -271.376 154.708 -272.498 156.391ZM-262.829 162.793C-262.829 166.258 -265.172 168.238 -267.68 168.238C-270.155 168.238 -272.498 166.324 -272.498 162.859C-272.498 159.394 -270.155 157.48 -267.68 157.48C-265.172 157.48 -262.829 159.328 -262.829 162.793ZM-237.098 162.859C-237.098 157.084 -241.223 153.421 -246.503 153.421C-251.783 153.421 -255.908 157.084 -255.908 162.859C-255.908 168.601 -251.915 172.297 -246.635 172.297C-241.322 172.297 -237.098 168.601 -237.098 162.859ZM-251.222 162.859C-251.222 159.196 -249.011 157.447 -246.569 157.447C-244.127 157.447 -241.85 159.196 -241.85 162.859C-241.85 166.489 -244.193 168.271 -246.635 168.271C-249.11 168.271 -251.222 166.489 -251.222 162.859ZM-216.45 153.718H-221.103V163.783C-221.103 166.72 -222.687 168.304 -225.195 168.304C-227.637 168.304 -229.254 166.72 -229.254 163.783V153.718H-233.874V164.443C-233.874 169.459 -230.805 172.231 -226.548 172.231C-224.271 172.231 -222.258 171.241 -221.103 169.69V172H-216.45V153.718ZM-211.165 166.324C-211.165 170.515 -208.822 172 -205.324 172H-202.42V168.106H-204.565C-206.017 168.106 -206.512 167.578 -206.512 166.357V157.513H-202.42V153.718H-206.512V149.197H-211.165V153.718H-213.343V157.513H-211.165V166.324ZM-192.356 160.45C-192.356 167.347 -187.307 172.198 -180.674 172.198C-175.559 172.198 -171.401 169.492 -169.85 164.74H-175.163C-176.252 166.984 -178.232 168.073 -180.707 168.073C-184.733 168.073 -187.604 165.103 -187.604 160.45C-187.604 155.764 -184.733 152.827 -180.707 152.827C-178.232 152.827 -176.252 153.916 -175.163 156.127H-169.85C-171.401 151.408 -175.559 148.669 -180.674 148.669C-187.307 148.669 -192.356 153.553 -192.356 160.45ZM-148.249 162.859C-148.249 157.084 -152.374 153.421 -157.654 153.421C-162.934 153.421 -167.059 157.084 -167.059 162.859C-167.059 168.601 -163.066 172.297 -157.786 172.297C-152.473 172.297 -148.249 168.601 -148.249 162.859ZM-162.373 162.859C-162.373 159.196 -160.162 157.447 -157.72 157.447C-155.278 157.447 -153.001 159.196 -153.001 162.859C-153.001 166.489 -155.344 168.271 -157.786 168.271C-160.261 168.271 -162.373 166.489 -162.373 162.859ZM-140.24 156.391V147.58H-144.86V172H-140.24V169.393C-139.118 170.977 -137.072 172.297 -134.201 172.297C-129.515 172.297 -125.852 168.502 -125.852 162.793C-125.852 157.084 -129.515 153.421 -134.201 153.421C-136.973 153.421 -139.118 154.708 -140.24 156.391ZM-130.571 162.793C-130.571 166.258 -132.914 168.238 -135.422 168.238C-137.897 168.238 -140.24 166.324 -140.24 162.859C-140.24 159.394 -137.897 157.48 -135.422 157.48C-132.914 157.48 -130.571 159.328 -130.571 162.793ZM-122.495 172H-117.875V161.902C-117.875 158.965 -116.258 157.381 -113.75 157.381C-111.308 157.381 -109.691 158.965 -109.691 161.902V172H-105.071V161.275C-105.071 156.226 -108.074 153.454 -112.199 153.454C-114.641 153.454 -116.687 154.444 -117.875 155.995V147.58H-122.495V172ZM-101.866 162.793C-101.866 168.502 -98.1696 172.297 -93.5496 172.297C-90.6456 172.297 -88.5666 170.911 -87.4776 169.327V172H-82.8246V153.718H-87.4776V156.325C-88.5666 154.807 -90.5796 153.421 -93.5166 153.421C-98.1696 153.421 -101.866 157.084 -101.866 162.793ZM-87.4776 162.859C-87.4776 166.324 -89.7876 168.238 -92.3286 168.238C-94.8036 168.238 -97.1466 166.258 -97.1466 162.793C-97.1466 159.328 -94.8036 157.48 -92.3286 157.48C-89.7876 157.48 -87.4776 159.394 -87.4776 162.859ZM-52.7374 172H-48.1174V161.275C-48.1174 156.226 -51.2194 153.454 -55.6084 153.454C-58.2814 153.454 -60.6904 154.873 -61.8784 156.952C-63.1324 154.675 -65.4754 153.454 -68.3134 153.454C-70.5904 153.454 -72.5374 154.411 -73.6924 155.929V153.718H-78.3124V172H-73.6924V161.902C-73.6924 158.998 -72.0754 157.48 -69.5674 157.48C-67.1254 157.48 -65.5084 158.998 -65.5084 161.902V172H-60.8884V161.902C-60.8884 158.998 -59.2714 157.48 -56.7964 157.48C-54.3544 157.48 -52.7374 158.998 -52.7374 161.902V172Z" fill="#5E6282"/>
</g>
<defs>
<linearGradient id="paint0_linear" x1="187.239" y1="9.86234" x2="5.23216" y2="354.287" gradientUnits="userSpaceOnUse">
<stop stop-color="#747DEF"/>
<stop offset="1" stop-color="#5E3BE1"/>
</linearGradient>
<clipPath id="clip0">
<rect width="1440" height="3624" fill="white" transform="translate(-1041 -2733)"/>
</clipPath>
</defs>
</svg>
